<svg width="100" height="100" xmlns="http://www.w3.org/2000/svg" preserveAspectRatio="xMidYMid meet" version="1.0">
 <g id="Layer_1">
  <title>Layer 1</title>
  <path stroke="#000" id="svg_1" d="m43.71036,42.20188c-3.58848,0 -7.17696,0 -10.76544,0c0,3.95745 0,7.91489 0,11.87234c3.58848,0 7.17696,0 10.76544,0c0,-3.95745 0,-7.91489 0,-11.87234zm15.55009,0c-3.98718,0 -7.97443,0 -11.96161,0c0,3.95745 0,7.91489 0,11.87234c3.98718,0 7.97443,0 11.96161,0c0,-3.95745 0,-7.91489 0,-11.87234zm14.35392,0c-3.98718,0 -7.97443,0 -11.9616,0c0,3.95745 0,7.91489 0,11.87234c3.98718,0 7.97443,0 11.9616,0c0,-3.95745 0,-7.91489 0,-11.87234zm14.35392,0c-3.98718,0 -7.97443,0 -11.9616,0c0,3.95745 0,7.91489 0,11.87234c3.98718,0 7.97443,0 11.9616,0c0,-3.95745 0,-7.91489 0,-11.87234zm-44.25793,24.4829c-3.78786,-0.26805 -7.57566,0.18939 -11.36352,-0.07866c-0.24304,-4.1773 -0.13047,-8.35461 -0.37351,-12.53192c-3.54482,0 -7.44526,0 -10.99001,0c0,-3.95745 0,-7.9149 0,-11.87234c3.58848,0 7.17696,0 10.76544,0c0,-4.39717 0,-8.79433 0,-13.19149c3.98718,0 7.97443,0 11.9616,0c0,-3.95745 0,-7.91489 0,-11.87234c-3.98718,0 -7.97443,0 -11.9616,0c0,3.95745 0,7.91489 0,11.87234c-3.54475,0 -7.44519,-0.19609 -10.99001,-0.19609c-0.24304,4.17729 -0.13047,8.5507 -0.37351,12.728c-3.78786,0.26804 -7.62908,-0.02274 -11.41695,0.2453c0,3.90927 0.05343,8.37734 0.05343,12.28661c3.98718,0 7.97443,0 11.9616,0c0,4.39717 0,8.79432 0,13.19149c3.58848,0 7.17696,0 10.76544,0c0,3.95745 0,7.91489 0,11.87234c3.98718,0 7.97443,0 11.9616,0c0,-3.90927 0,-8.54399 0,-12.45326l0,0.00001z" fill="#fff"/>
 </g>
</svg>