<svg width="100" height="100" xmlns="http://www.w3.org/2000/svg" version="1.0" preserveAspectRatio="xMidYMid meet">
 <g id="Layer_1">
  <title>Layer 1</title>
  <path id="svg_3" d="m55.89691,42.51289c3.72475,0 7.4495,0 11.17425,0c0,4.08511 0,8.17021 0,12.25532c-3.72475,0 -7.4495,0 -11.17425,0c0,-4.08511 0,-8.17021 0,-12.25532zm-16.1406,0c4.13859,0 8.27725,0 12.41584,0c0,4.08511 0,8.17021 0,12.25532c-4.13859,0 -8.27725,0 -12.41584,0c0,-4.08511 0,-8.17021 0,-12.25532zm-14.89901,0c4.13859,0 8.27725,0 12.41584,0c0,4.08511 0,8.17021 0,12.25532c-4.13859,0 -8.27725,0 -12.41584,0c0,-4.08511 0,-8.17021 0,-12.25532zm-14.89901,0c4.13859,0 8.27725,0 12.41584,0c0,4.08511 0,8.17021 0,12.25532c-4.13859,0 -8.27725,0 -12.41584,0c0,-4.08511 0,-8.17021 0,-12.25532zm45.93861,25.27267c3.9317,-0.2767 7.86334,0.1955 11.79505,-0.0812c0.25227,-4.31205 0.13542,-8.62412 0.38769,-12.93617c3.67944,0 7.72799,0 11.40735,0c0,-4.08511 0,-8.17022 0,-12.25532c-3.72475,0 -7.4495,0 -11.17425,0c0,-4.53902 0,-9.07802 0,-13.61702c-4.13859,0 -8.27725,0 -12.41584,0c0,-4.08511 0,-8.17021 0,-12.25532c4.13859,0 8.27725,0 12.41584,0c0,4.08511 0,8.17021 0,12.25532c3.67936,0 7.72792,-0.20241 11.40735,-0.20241c0.25227,4.31204 0.13542,8.82653 0.3877,13.13858c3.9317,0.27669 7.91879,-0.02347 11.8505,0.25322c0,4.03537 -0.05546,8.64758 -0.05546,12.68296c-4.13859,0 -8.27725,0 -12.41584,0c0,4.53901 0,9.07801 0,13.61702c-3.72475,0 -7.4495,0 -11.17425,0c0,4.08511 0,8.17021 0,12.25532c-4.13859,0 -8.27725,0 -12.41584,0c0,-4.03537 0,-8.81961 0,-12.85498l0,0.00001z" stroke="#000" fill="#fff"/>
 </g>
</svg>